<?xml version="1.0" encoding="UTF-8"?>
<svg xmlns="http://www.w3.org/2000/svg" xmlns:xlink="http://www.w3.org/1999/xlink" width="128px" height="128px" viewBox="0 0 128 128" version="1.1">
<g id="surface1">
<path style=" stroke:none;fill-rule:nonzero;fill:rgb(29.019609%,29.019609%,29.019609%);fill-opacity:1;" d="M 49.601562 6.398438 L 56 32 C 57.921875 39.039062 61.761719 42.878906 68.800781 44.800781 L 94.398438 51.199219 L 68.800781 57.601562 C 61.761719 59.519531 57.921875 63.359375 56 70.398438 L 49.601562 96 L 43.199219 70.398438 C 41.28125 63.359375 37.441406 59.519531 30.398438 57.601562 L 4.800781 51.199219 L 30.398438 44.800781 C 37.441406 42.878906 41.28125 39.039062 43.199219 32 Z M 100.800781 76.800781 L 104 89.601562 C 104.640625 93.441406 106.558594 95.359375 110.398438 96 L 123.199219 99.199219 L 110.398438 102.398438 C 106.558594 103.039062 104.640625 104.960938 104 108.800781 L 100.800781 121.601562 L 97.601562 108.800781 C 96.960938 104.960938 95.039062 103.039062 91.199219 102.398438 L 78.398438 99.199219 L 91.199219 96 C 95.039062 95.359375 96.960938 93.441406 97.601562 89.601562 Z M 100.800781 76.800781 "/>
</g>
</svg>
