<svg width="128" height="128" xmlns="http://www.w3.org/2000/svg" viewBox="0 0 14 14">
  <!-- 四角の枠 -->
  <path fill="#000000" fill-rule="evenodd" d="M3.772 1.583c1.027-.114 2.058-.208 3.103-.208s2.076.094 3.103.208a2.505 2.505 0 0 1 2.2 2.205c.109 1.02.197 2.047.197 3.087s-.088 2.067-.197 3.087a2.505 2.505 0 0 1-2.2 2.205c-1.027.114-2.058.208-3.103.208s-2.076-.094-3.103-.208a2.505 2.505 0 0 1-2.2-2.205c-.109-1.02-.197-2.047-.197-3.087s.088-2.067.197-3.087a2.505 2.505 0 0 1 2.2-2.205M6.875.125c-1.115 0-2.202.1-3.24.215A3.755 3.755 0 0 0 .328 3.655C.219 4.688.125 5.768.125 6.875s.094 2.187.204 3.22a3.755 3.755 0 0 0 3.305 3.314c1.039.116 2.126.216 3.241.216s2.202-.1 3.24-.215a3.755 3.755 0 0 0 3.306-3.316c.11-1.032.204-2.112.204-3.219s-.094-2.187-.204-3.22A3.755 3.755 0 0 0 10.116.34C9.077.225 7.99.125 6.875.125" clip-rule="evenodd"/>
  
  <!-- ひらがな（縮小・中央配置・太く） -->
  <g transform="translate(2.8, 2.8) scale(0.6)" stroke="#000000" stroke-width="0.3" stroke-linejoin="round">
    <path fill="#000000" fill-rule="evenodd" d="M6.304.065a.75.75 0 0 1 .381.99c-.14.316-.277.807-.389 1.43a37.5 37.5 0 0 0 6.058-.71a.75.75 0 1 1 .293 1.472c-2.161.43-4.35.685-6.541.745c-.051.627-.075 1.3-.066 1.99c.733-.093 1.446-.084 2.065.03q.442.083.861.209q.053-.305.036-.545a.75.75 0 1 1 1.496-.102a4 4 0 0 1-.122 1.232c.972.533 1.739 1.27 2.144 2.144c.354.762.422 1.617.1 2.461c-.315.83-.98 1.58-1.961 2.218a.75.75 0 0 1-.817-1.258c.8-.519 1.205-1.042 1.377-1.493a1.6 1.6 0 0 0-.06-1.297c-.223-.482-.676-.962-1.315-1.35A10.7 10.7 0 0 1 8.5 10.287a11 11 0 0 1-1.317 1.35c.236.435.506.786.805 1.043a.75.75 0 0 1-.976 1.139a5 5 0 0 1-1.05-1.293c-.662.396-1.36.677-2.067.78c-.586.086-1.296.046-1.915-.218c-.643-.273-1.233-.817-1.36-1.705c-.307-2.153 1.003-3.656 2.557-4.5a8 8 0 0 1 1.37-.576A23 23 0 0 1 4.6 4.002a35 35 0 0 1-3.69-.246a.75.75 0 1 1 .179-1.49a34 34 0 0 0 3.682.238c.13-.82.312-1.54.543-2.058a.75.75 0 0 1 .99-.381M4.646 7.86q-.391.147-.754.343c-1.241.673-1.973 1.668-1.787 2.97c.035.244.175.414.462.536c.312.132.733.17 1.11.114c.53-.077 1.097-.315 1.66-.673a11 11 0 0 1-.109-.323c-.29-.923-.477-1.941-.582-2.967m1.945 2.29q.392-.38.752-.816a9.3 9.3 0 0 0 1.122-1.698a7 7 0 0 0-.632-.148c-.492-.091-1.09-.093-1.716-.003c.084.938.238 1.85.474 2.664" clip-rule="evenodd"/>
  </g>
</svg>
